The film tells the story of Fyodor Protasov, played by the great Soviet director Vsevolod Pudovkin, who after learning that his wife has an affair with another man, decides to grant her the divorce thus putting an end to an unhappy marriage and enable her to remarry her lover. However, the Orthodox Church refuses to grant a divorce except for three exceptions, one of which was the death of one spouse. So the husband simulates his own suicide and becomes a living corpse.

   General
      Complete name : Zhivoy trup.avi
      Format : AVI
      Format/Info : Audio Video Interleave
      File size : 1.41 GiB
      Duration : 2h 0mn
      Overall bit rate : 1 674 Kbps
      Writing application : FairUse Wizard - http://fairusewizard.com
      Writing library : The best and REALLY easy backup tool
   Video #0
      ID : 0
      Format : MPEG-4 Visual
      Format profile : AdvancedSimple@L5
      Format settings, BVOP : Yes
      Format settings, QPel : No
      Format settings, GMC : No warppoints
      Format settings, Matrix : Default (MPEG)
      Muxing mode : Packed bitstream
      Codec ID : XVID
      Codec ID/Hint : XviD
      Duration : 2h 0mn
      Bit rate : 1 536 Kbps
      Width : 672 pixels
      Height : 496 pixels
      Display aspect ratio : 4:3
      Frame rate : 25.000 fps
      Resolution : 24 bits
      Colorimetry : 4:2:0
      Scan type : Progressive
      Bits/(Pixel*Frame) : 0.184
      Stream size : 1.29 GiB (92%)
      Writing library : XviD 1.2.1 (UTC 2008-12-04)
   Audio #1
      ID : 1
      Format : MPEG Audio
      Format version : Version 1
      Format profile : Layer 3
      Codec ID : 55
      Codec ID/Hint : MP3
      Duration : 2h 0mn
      Bit rate mode : Constant
      Bit rate : 128 Kbps
      Channel(s) : 2 channels
      Sampling rate : 48.0 KHz
      Resolution : 16 bits
      Stream size : 110 MiB (8%)
      Alignment : Aligned on interleaves
      Interleave, duration : 40 ms (1.00 video frame)
      Interleave, preload duration : 504 ms
      Writing library : LAME3.97 
      Encoding settings : -m j -V 4 -q 2 -lowpass 17 -b 128

 
http://www.imdb.com/title/tt0019609/

Silent with German intertitles; English subpack

Fyodor Otsep - Zhivoy trup [The Living Corpse] (1929)